<svg xmlns="http://www.w3.org/2000/svg" xmlns:xlink="http://www.w3.org/1999/xlink" width="193.238" height="32.2" viewBox="0 0 193.238 32.2">
  <defs>
    <linearGradient id="linear-gradient" x1="-0.457" y1="-0.073" x2="2.855" y2="1.68" gradientUnits="objectBoundingBox">
      <stop offset="0" stop-color="#ffb000"/>
      <stop offset="1" stop-color="#ef5617"/>
    </linearGradient>
    <linearGradient id="linear-gradient-2" x1="-1.42" y1="-0.709" x2="2.193" y2="1.593" xlink:href="#linear-gradient"/>
    <linearGradient id="linear-gradient-3" y1="0.5" x2="1" y2="0.5" gradientUnits="objectBoundingBox">
      <stop offset="0" stop-color="#c2041d"/>
      <stop offset="0.334" stop-color="#830b17"/>
      <stop offset="0.64" stop-color="#501112"/>
      <stop offset="0.871" stop-color="#311510"/>
      <stop offset="1" stop-color="#26170f"/>
    </linearGradient>
    <linearGradient id="linear-gradient-4" x1="0.159" y1="0.326" x2="3.251" y2="1.91" xlink:href="#linear-gradient"/>
  </defs>
  <g id="Group_11" data-name="Group 11" transform="translate(-54.69 -46.902)">
    <g id="Group_1" data-name="Group 1" transform="translate(54.69 50.633)">
      <path id="Path_1" data-name="Path 1" d="M61.3,85.771c.1,1.578,1.617,3.118,4.56,3.118,2.806,0,4.033-1.189,4.033-2.747s-1.325-2.241-3.878-2.747l-3.585-.721c-4.073-.8-7.21-2.942-7.21-7.677,0-5.378,4.423-8.418,10.581-8.418,6.781,0,10.444,3.8,10.464,8.223H69.869c-.078-1.481-1.364-3.04-4.073-3.04-2.4,0-3.644,1.111-3.644,2.67,0,1.345,1.266,2.124,3.527,2.533l3.722.7c3.78.682,7.346,2.572,7.346,7.755,0,5.2-3.878,8.71-11.107,8.71-8.32,0-10.912-4.443-10.951-8.359Z" transform="translate(-54.69 -65.661)" fill="#4e3023"/>
      <path id="Path_2" data-name="Path 2" d="M150.337,102.76v-1.539c0-6.645,4.345-9.977,9.84-9.977,5.885,0,9.743,3.819,9.743,10.035v2.143h-13v.76a3.48,3.48,0,0,0,3.507,3.8c1.754,0,3.118-.857,3.293-2.338h6.1c-.234,3.254-2.923,7.249-9.392,7.249C154.487,112.893,150.337,109.541,150.337,102.76Zm13.133-3.1c0-2.143-1.267-3.683-3.235-3.683s-3.312,1.54-3.312,3.683Z" transform="translate(-127.745 -84.502)" fill="#4e3023"/>
      <path id="Path_3" data-name="Path 3" d="M239.222,91.948h6.761V95.1h.312a4.786,4.786,0,0,1,4.638-3.449,6.71,6.71,0,0,1,1.987.195v5.69a8.144,8.144,0,0,0-2.4-.273c-3.137,0-4.326,1.793-4.326,4.579v10.97h-6.976Z" transform="translate(-195.636 -84.817)" fill="#4e3023"/>
      <path id="Path_4" data-name="Path 4" d="M308.187,87.408h-.312V90.7h-6.742v-28h6.781V73.027h.312c.818-2.046,3.04-3.41,5.9-3.41,4.618,0,7.619,3.332,7.619,9.8v1.656c0,6.391-2.962,9.84-7.638,9.84C311.168,90.915,309.044,89.532,308.187,87.408Zm6.567-6.508V79.633c0-3.215-1.384-4.813-3.352-4.813-2.065,0-3.507,1.578-3.507,4.813V80.9c0,3.235,1.442,4.852,3.507,4.852C313.39,85.752,314.754,84.115,314.754,80.9Z" transform="translate(-242.923 -62.7)" fill="#4e3023"/>
    </g>
    <g id="Group_2" data-name="Group 2" transform="translate(163.012 50.633)">
      <path id="Path_5" data-name="Path 5" d="M526.82,73.027h.312V62.7h6.781v28h-6.742V87.408h-.312c-.838,2.124-3,3.507-5.9,3.507-4.754,0-7.658-3.6-7.658-9.86V79.419c0-6.216,2.943-9.8,7.658-9.8C523.839,69.617,526.021,70.962,526.82,73.027Zm-6.528,6.606V80.9c0,3.273,1.442,4.832,3.39,4.832,2.046,0,3.469-1.617,3.469-4.813V79.633c0-3.157-1.442-4.813-3.488-4.813C521.734,74.82,520.292,76.379,520.292,79.633Z" transform="translate(-513.297 -62.7)" fill="url(#linear-gradient)"/>
      <path id="Path_6" data-name="Path 6" d="M613.369,113.047c-4.073,0-6.9-2.319-6.9-6.313,0-3.839,2.65-6.274,7.521-6.294h4.735V98.784a2.263,2.263,0,0,0-2.553-2.377,2.372,2.372,0,0,0-2.65,2.241h-6.294c.1-3.371,2.124-7.073,9.022-7.073,5.105,0,9.119,2.065,9.119,7.365v13.815h-6.333V110.28h-.312C618.084,111.664,616.448,113.047,613.369,113.047Zm5.358-7.054v-2.007h-2.806c-1.773,0-2.806.877-2.806,2.182a2.39,2.39,0,0,0,2.65,2.28A2.707,2.707,0,0,0,618.727,105.993Z" transform="translate(-584.463 -84.754)" fill="url(#linear-gradient-2)"/>
    </g>
    <g id="Group_3" data-name="Group 3" transform="translate(130.699 46.902)">
      <path id="Path_7" data-name="Path 7" d="M390.151,49.083a4.575,4.575,0,0,1,6.109-1.619,4.284,4.284,0,0,1,1.754,5.925L384.969,75.876a4.548,4.548,0,0,1-7.863-4.57Z" transform="translate(-376.493 -46.902)" fill="#ea3f18" fill-rule="evenodd"/>
    </g>
    <path id="Path_8" data-name="Path 8" d="M407.556,150.669l-.985-8.832-8.078.008-17.464-.008a4.41,4.41,0,0,0,0,8.819l18.616.009Z" transform="translate(-245.888 -72.511)" fill="url(#linear-gradient-3)"/>
    <g id="Group_4" data-name="Group 4" transform="translate(143.923 46.902)">
      <path id="Path_9" data-name="Path 9" d="M440.913,49.083a4.576,4.576,0,0,0-6.11-1.619,4.284,4.284,0,0,0-1.753,5.925l13.044,22.487a4.548,4.548,0,0,0,7.863-4.57Z" transform="translate(-432.48 -46.902)" fill-rule="evenodd" fill="url(#linear-gradient-4)"/>
    </g>
    <g id="Group_5" data-name="Group 5" transform="translate(206.387 68.307)">
      <path id="Path_10" data-name="Path 10" d="M698.346,171.122a1.406,1.406,0,1,1-1.411,1.411A1.416,1.416,0,0,1,698.346,171.122Z" transform="translate(-696.935 -163.186)" fill="#e97d36"/>
      <path id="Path_11" data-name="Path 11" d="M717.543,142.375c0-2.851,1.675-4.85,4.516-4.85,2.557,0,4.1,1.636,4.183,3.508h-2.175a1.956,1.956,0,0,0-1.891-1.626c-1.45,0-2.312,1.146-2.312,3.017v.862c0,1.881.892,3.067,2.322,3.067a1.8,1.8,0,0,0,1.94-1.489h2.165c-.255,2.155-1.812,3.38-4.242,3.38-2.822,0-4.507-2.008-4.507-4.957Z" transform="translate(-712.675 -137.525)" fill="#e97d36"/>
      <path id="Path_12" data-name="Path 12" d="M770.967,142.453v.8c0,2.959-1.636,4.987-4.644,4.987s-4.664-2.028-4.664-4.977v-.8c0-2.841,1.656-4.938,4.664-4.938S770.967,139.612,770.967,142.453Zm-6.975.019v.8c0,1.773.745,3.125,2.332,3.125s2.312-1.352,2.312-3.125v-.8c0-1.822-.745-3.125-2.312-3.125S763.992,140.66,763.992,142.472Z" transform="translate(-746.372 -137.525)" fill="#e97d36"/>
      <path id="Path_13" data-name="Path 13" d="M810.672,137.734h2.273v1.421h.117a3.2,3.2,0,0,1,5.613.167h.1a3.227,3.227,0,0,1,3.164-1.754,3.183,3.183,0,0,1,3.41,3.458V148.1h-2.312v-6.466a1.851,1.851,0,0,0-1.93-2.1,1.933,1.933,0,0,0-1.969,2.2V148.1h-2.254v-6.358c0-1.519-.794-2.2-1.94-2.2a1.93,1.93,0,0,0-1.959,2.185V148.1h-2.312Z" transform="translate(-783.807 -137.557)" fill="#e97d36"/>
    </g>
    <g id="Group_6" data-name="Group 6" transform="translate(54.69 50.633)">
      <path id="Path_14" data-name="Path 14" d="M61.3,85.771c.1,1.578,1.617,3.118,4.56,3.118,2.806,0,4.033-1.189,4.033-2.747s-1.325-2.241-3.878-2.747l-3.585-.721c-4.073-.8-7.21-2.942-7.21-7.677,0-5.378,4.423-8.418,10.581-8.418,6.781,0,10.444,3.8,10.464,8.223H69.869c-.078-1.481-1.364-3.04-4.073-3.04-2.4,0-3.644,1.111-3.644,2.67,0,1.345,1.266,2.124,3.527,2.533l3.722.7c3.78.682,7.346,2.572,7.346,7.755,0,5.2-3.878,8.71-11.107,8.71-8.32,0-10.912-4.443-10.951-8.359Z" transform="translate(-54.69 -65.661)" fill="#4e3023"/>
      <path id="Path_15" data-name="Path 15" d="M150.337,102.76v-1.539c0-6.645,4.345-9.977,9.84-9.977,5.885,0,9.743,3.819,9.743,10.035v2.143h-13v.76a3.48,3.48,0,0,0,3.507,3.8c1.754,0,3.118-.857,3.293-2.338h6.1c-.234,3.254-2.923,7.249-9.392,7.249C154.487,112.893,150.337,109.541,150.337,102.76Zm13.133-3.1c0-2.143-1.267-3.683-3.235-3.683s-3.312,1.54-3.312,3.683Z" transform="translate(-127.745 -84.502)" fill="#4e3023"/>
      <path id="Path_16" data-name="Path 16" d="M239.222,91.948h6.761V95.1h.312a4.786,4.786,0,0,1,4.638-3.449,6.71,6.71,0,0,1,1.987.195v5.69a8.144,8.144,0,0,0-2.4-.273c-3.137,0-4.326,1.793-4.326,4.579v10.97h-6.976Z" transform="translate(-195.636 -84.817)" fill="#4e3023"/>
      <path id="Path_17" data-name="Path 17" d="M308.187,87.408h-.312V90.7h-6.742v-28h6.781V73.027h.312c.818-2.046,3.04-3.41,5.9-3.41,4.618,0,7.619,3.332,7.619,9.8v1.656c0,6.391-2.962,9.84-7.638,9.84C311.168,90.915,309.044,89.532,308.187,87.408Zm6.567-6.508V79.633c0-3.215-1.384-4.813-3.352-4.813-2.065,0-3.507,1.578-3.507,4.813V80.9c0,3.235,1.442,4.852,3.507,4.852C313.39,85.752,314.754,84.115,314.754,80.9Z" transform="translate(-242.923 -62.7)" fill="#4e3023"/>
    </g>
    <g id="Group_7" data-name="Group 7" transform="translate(163.012 50.633)">
      <path id="Path_18" data-name="Path 18" d="M526.82,73.027h.312V62.7h6.781v28h-6.742V87.408h-.312c-.838,2.124-3,3.507-5.9,3.507-4.754,0-7.658-3.6-7.658-9.86V79.419c0-6.216,2.943-9.8,7.658-9.8C523.839,69.617,526.021,70.962,526.82,73.027Zm-6.528,6.606V80.9c0,3.273,1.442,4.832,3.39,4.832,2.046,0,3.469-1.617,3.469-4.813V79.633c0-3.157-1.442-4.813-3.488-4.813C521.734,74.82,520.292,76.379,520.292,79.633Z" transform="translate(-513.297 -62.7)" fill="url(#linear-gradient)"/>
      <path id="Path_19" data-name="Path 19" d="M613.369,113.047c-4.073,0-6.9-2.319-6.9-6.313,0-3.839,2.65-6.274,7.521-6.294h4.735V98.784a2.263,2.263,0,0,0-2.553-2.377,2.372,2.372,0,0,0-2.65,2.241h-6.294c.1-3.371,2.124-7.073,9.022-7.073,5.105,0,9.119,2.065,9.119,7.365v13.815h-6.333V110.28h-.312C618.084,111.664,616.448,113.047,613.369,113.047Zm5.358-7.054v-2.007h-2.806c-1.773,0-2.806.877-2.806,2.182a2.39,2.39,0,0,0,2.65,2.28A2.707,2.707,0,0,0,618.727,105.993Z" transform="translate(-584.463 -84.754)" fill="url(#linear-gradient-2)"/>
    </g>
    <g id="Group_8" data-name="Group 8" transform="translate(130.699 46.902)">
      <path id="Path_20" data-name="Path 20" d="M390.151,49.083a4.575,4.575,0,0,1,6.109-1.619,4.284,4.284,0,0,1,1.754,5.925L384.969,75.876a4.548,4.548,0,0,1-7.863-4.57Z" transform="translate(-376.493 -46.902)" fill="#ea3f18" fill-rule="evenodd"/>
    </g>
    <path id="Path_21" data-name="Path 21" d="M407.556,150.669l-.985-8.832-8.078.008-17.464-.008a4.41,4.41,0,0,0,0,8.819l18.616.009Z" transform="translate(-245.888 -72.511)" fill="url(#linear-gradient-3)"/>
    <g id="Group_9" data-name="Group 9" transform="translate(143.923 46.902)">
      <path id="Path_22" data-name="Path 22" d="M440.913,49.083a4.576,4.576,0,0,0-6.11-1.619,4.284,4.284,0,0,0-1.753,5.925l13.044,22.487a4.548,4.548,0,0,0,7.863-4.57Z" transform="translate(-432.48 -46.902)" fill-rule="evenodd" fill="url(#linear-gradient-4)"/>
    </g>
    <g id="Group_10" data-name="Group 10" transform="translate(206.387 68.307)">
      <path id="Path_23" data-name="Path 23" d="M698.346,171.122a1.406,1.406,0,1,1-1.411,1.411A1.416,1.416,0,0,1,698.346,171.122Z" transform="translate(-696.935 -163.186)" fill="#e97d36"/>
      <path id="Path_24" data-name="Path 24" d="M717.543,142.375c0-2.851,1.675-4.85,4.516-4.85,2.557,0,4.1,1.636,4.183,3.508h-2.175a1.956,1.956,0,0,0-1.891-1.626c-1.45,0-2.312,1.146-2.312,3.017v.862c0,1.881.892,3.067,2.322,3.067a1.8,1.8,0,0,0,1.94-1.489h2.165c-.255,2.155-1.812,3.38-4.242,3.38-2.822,0-4.507-2.008-4.507-4.957Z" transform="translate(-712.675 -137.525)" fill="#e97d36"/>
      <path id="Path_25" data-name="Path 25" d="M770.967,142.453v.8c0,2.959-1.636,4.987-4.644,4.987s-4.664-2.028-4.664-4.977v-.8c0-2.841,1.656-4.938,4.664-4.938S770.967,139.612,770.967,142.453Zm-6.975.019v.8c0,1.773.745,3.125,2.332,3.125s2.312-1.352,2.312-3.125v-.8c0-1.822-.745-3.125-2.312-3.125S763.992,140.66,763.992,142.472Z" transform="translate(-746.372 -137.525)" fill="#e97d36"/>
      <path id="Path_26" data-name="Path 26" d="M810.672,137.734h2.273v1.421h.117a3.2,3.2,0,0,1,5.613.167h.1a3.227,3.227,0,0,1,3.164-1.754,3.183,3.183,0,0,1,3.41,3.458V148.1h-2.312v-6.466a1.851,1.851,0,0,0-1.93-2.1,1.933,1.933,0,0,0-1.969,2.2V148.1h-2.254v-6.358c0-1.519-.794-2.2-1.94-2.2a1.93,1.93,0,0,0-1.959,2.185V148.1h-2.312Z" transform="translate(-783.807 -137.557)" fill="#e97d36"/>
    </g>
  </g>
</svg>
